<?xml version="1.0" encoding="UTF-8"?>
<svg version="1.1" xmlns="http://www.w3.org/2000/svg" width="730" height="730">
  <style>
    /* Default color (light mode) */
    path {
      fill: #000000;
    }

    /* Dark mode */
    @media (prefers-color-scheme: dark) {
      path {
        fill: #ffffff;
      }
    }
  </style>
<path d="M0 0 C237.6 0 475.2 0 720 0 C720 237.6 720 475.2 720 720 C482.4 720 244.8 720 0 720 C0 482.4 0 244.8 0 0 Z M522 106 C520.82179688 106.37382813 519.64359375 106.74765625 518.4296875 107.1328125 C506.4577792 111.32714696 496.99995593 118.17565297 488 127 C487.23816406 127.72574219 486.47632813 128.45148438 485.69140625 129.19921875 C467.45636375 147.81349956 462.61094112 174.49433312 462.69726562 199.58886719 C463.21672266 227.53373189 472.32576755 252.16434313 492.5859375 271.90234375 C496.72697721 275.50062582 501.23908459 278.29785882 506 281 C507.22009766 281.69416016 507.22009766 281.69416016 508.46484375 282.40234375 C523.5732256 290.45851495 539.66130656 292.42282276 556.5 292.375 C557.25222839 292.37412384 558.00445679 292.37324768 558.77947998 292.37234497 C580.80805716 292.28773453 601.48505673 288.29613747 619 274 C619.90234375 273.27167969 620.8046875 272.54335938 621.734375 271.79296875 C639.19404948 256.86542938 647.7626086 236.32335408 651 214 C652.60372295 182.28167804 649.898597 153.27849654 628.25 128.3125 C612.83401806 111.99106129 590.60804218 102.46066309 568.20056152 101.70941162 C564.61248898 101.63116278 561.02632344 101.61571284 557.4375 101.625 C556.68465729 101.62521149 555.93181458 101.62542297 555.15615845 101.62564087 C543.66785132 101.65786635 532.9696631 102.39062698 522 106 Z M63 106 C63 166.06 63 226.12 63 288 C143.51383221 293.67925485 143.51383221 293.67925485 211.1875 261.125 C230.43172672 241.14802717 235.56293967 216.22853889 235.26953125 189.375 C234.67302293 166.21989888 225.23247723 146.85695226 209.5 130.125 C171.54282167 94.36951414 107.58662781 106 63 106 Z M268 106 C267.93202302 122.02165137 267.87686793 138.04317778 267.84456348 154.06493378 C267.82915878 161.50574442 267.80819326 168.94645845 267.77368164 176.38720703 C267.74358162 182.87996031 267.72437865 189.37264356 267.71773452 195.86546469 C267.71385674 199.29667437 267.70488086 202.72768385 267.68280983 206.15882874 C267.55408969 228.67244749 267.92337813 249.24317136 282 268 C282.92619141 269.24136719 282.92619141 269.24136719 283.87109375 270.5078125 C295.71028922 284.36727436 314.57066067 289.8389162 332 292 C334.60130111 292.11166561 337.17620234 292.18685063 339.77734375 292.203125 C340.50635391 292.20882507 341.23536407 292.21452515 341.98646545 292.22039795 C343.52522356 292.22979419 345.06400129 292.23636038 346.6027832 292.24023438 C348.9002845 292.24984434 351.19685217 292.28087801 353.49414062 292.3125 C373.02538351 292.45382136 393.67460518 289.00573472 409 276 C410.26070313 274.95779297 410.26070313 274.95779297 411.546875 273.89453125 C423.63021577 262.96460028 429.6047595 246.99893376 431 231 C431.13695403 226.87195427 431.12654942 222.74717325 431.11352539 218.6171875 C431.11374443 216.7866407 431.11374443 216.7866407 431.1139679 214.91911316 C431.1133933 211.59528797 431.10840062 208.27152597 431.10139394 204.94771194 C431.09511491 201.46571288 431.09455302 197.98371284 431.09336853 194.50170898 C431.09026858 187.91813906 431.08207329 181.33458587 431.07201904 174.75102329 C431.0608163 167.25158738 431.05533699 159.75215064 431.05032361 152.25270844 C431.03988948 136.83512763 431.02156072 121.41756987 431 106 C415.16 106 399.32 106 383 106 C382.98018066 109.57231445 382.96036133 113.14462891 382.93994141 116.82519531 C382.87290009 128.6556676 382.79535964 140.48605537 382.71247292 152.31642532 C382.66249527 159.48599394 382.61605158 166.65555198 382.578125 173.82519531 C382.54503293 180.07918509 382.50510878 186.33308892 382.45720994 192.58698344 C382.43211465 195.89389876 382.41130455 199.20074816 382.39665604 202.50772858 C382.37966383 206.21263281 382.35059793 209.91726705 382.31884766 213.62207031 C382.31668747 214.70101562 382.31452728 215.77996094 382.31230164 216.89160156 C382.19572515 227.60780388 381.56961152 239.0818317 375 248 C365.07711682 256.82440903 354.01411648 256.74556383 341.41601562 256.19970703 C335.18932663 255.68501103 330.9082558 253.5349014 326.125 249.6875 C314.53534134 235.02999052 316.53052835 216.09825812 316.48828125 198.3828125 C316.47141347 195.71237467 316.45340265 193.04196876 316.43388367 190.37155151 C316.39049233 184.0963344 316.36177848 177.82114269 316.33856028 171.54582202 C316.31136034 164.39199097 316.26745909 157.23829142 316.22227156 150.08455491 C316.1298181 135.38977092 316.06016256 120.69495493 316 106 C300.16 106 284.32 106 268 106 Z M61 326 C61 429.29 61 532.58 61 639 C172.72876071 646.43878494 172.72876071 646.43878494 282 618 C283.6396875 617.11634766 283.6396875 617.11634766 285.3125 616.21484375 C292.1005336 612.41389126 298.10698589 608.06875008 304 603 C304.82242188 602.30003906 305.64484375 601.60007812 306.4921875 600.87890625 C336.1095064 574.99835189 354.4273372 537.86692209 357.72265625 498.72265625 C360.58467429 455.86553621 351.63788833 413.7742461 323.71875 380.26171875 C321.53140913 377.78555646 319.28612736 375.3850083 317 373 C316.25492188 372.19175781 315.50984375 371.38351562 314.7421875 370.55078125 C285.74123545 340.06628214 244.53540071 329.68503643 204 326 C156.81 326 109.62 326 61 326 Z M418 326 C418 429.29 418 532.58 418 639 C493.24 639 568.48 639 646 639 C646 619.2 646 599.4 646 579 C597.82 579 549.64 579 500 579 C500 553.26 500 527.52 500 501 C544.55 501 589.1 501 635 501 C635 481.2 635 461.4 635 441 C590.45 441 545.9 441 500 441 C500 422.85 500 404.7 500 386 C548.18 386 596.36 386 646 386 C646 366.2 646 346.4 646 326 C570.76 326 495.52 326 418 326 Z " fill="#000000" transform="translate(0,0)"/>
<path d="M0 0 C78.09731544 0 78.09731544 0 107 27 C125.37001524 46.09428107 130.44232468 71.97377731 130.375 97.5625 C130.37478851 98.30712494 130.37457703 99.05174988 130.37435913 99.81893921 C130.29545585 127.72639539 123.2786801 151.7213199 103.10546875 171.89453125 C74.9984284 198.10804467 35.64731984 195 0 195 C0 130.65 0 66.3 0 0 Z " fill="#000000" transform="translate(143,385)"/>
<path d="M0 0 C1.36125 1.0828125 1.36125 1.0828125 2.75 2.1875 C3.28882813 2.59871094 3.82765625 3.00992188 4.3828125 3.43359375 C13.72898522 11.50147827 18.72185529 25.35082787 20.75 37.1875 C20.87890625 37.90550781 21.0078125 38.62351563 21.140625 39.36328125 C23.82210114 58.09833167 22.12344107 80.52962408 11.5 96.625 C4.68137714 105.49511329 -3.22584572 111.73317112 -14.25 114.1875 C-28.62906109 115.05679904 -39.67284356 114.12372435 -51.03125 104.3828125 C-54.46478373 100.98554849 -56.94484688 97.41821516 -59.25 93.1875 C-59.70117188 92.36636719 -60.15234375 91.54523438 -60.6171875 90.69921875 C-69.89550465 72.1700351 -70.20537356 46.84023276 -64.25 27.1875 C-59.813654 14.0829744 -53.54303726 3.80769982 -41.0625 -2.625 C-27.95383022 -9.00386451 -12.37334486 -6.90051925 0 0 Z " fill="#000000" transform="translate(580.25,142.8125)"/>
<path d="M0 0 C47.41921255 1.52965202 47.41921255 1.52965202 63 18 C74.64467594 32.26847632 76.55557465 50.31186413 74.79345703 68.08300781 C73.1769593 80.51995631 68.53592804 92.5256532 59 101 C47.80854791 109.50271009 36.25424415 112.92927581 22.4375 113.5625 C21.60669922 113.60568359 20.77589844 113.64886719 19.91992188 113.69335938 C13.25781793 114.01497819 6.68976095 114 0 114 C0 76.38 0 38.76 0 0 Z " fill="#000000" transform="translate(111,140)"/>
</svg>
