<?xml version="1.0" encoding="UTF-8" standalone="no" ?>
<!DOCTYPE svg PUBLIC "-//W3C//DTD SVG 1.1//EN" "http://www.w3.org/Graphics/SVG/1.1/DTD/svg11.dtd">
<svg xmlns="http://www.w3.org/2000/svg" xmlns:xlink="http://www.w3.org/1999/xlink" version="1.1" width="200" height="100" viewBox="0 0 200 70" xml:space="preserve">
<desc>Created with Fabric.js 5.2.4</desc>
<defs>

</defs>

<g transform="matrix(0 0 0 0 0 0)" id="a49c80b7-700c-4976-85a7-39dd85c5edff"  >
</g>
<g transform="matrix(1 0 0 1 100 50)" id="e1ae35af-8301-406e-a9cf-3a87fb3b90cd"  >
<rect style="stroke: none; stroke-width: 1; stroke-dasharray: none; stroke-linecap: butt; stroke-dashoffset: 0; stroke-linejoin: miter; stroke-miterlimit: 4; fill: rgb(255,255,255); fill-rule: nonzero; opacity: 1; visibility: hidden;" vector-effect="non-scaling-stroke"  x="-100" y="-50" rx="0" ry="0" width="200" height="100" />
</g>
<g transform="matrix(0.13 0 0 0.13 153.73 50)"  >
<g style="" vector-effect="non-scaling-stroke"   >
		<g transform="matrix(0.13 0 0 -0.13 24.49 -6.2)"  >
<path style="stroke: none; stroke-width: 1; stroke-dasharray: none; stroke-linecap: butt; stroke-dashoffset: 0; stroke-linejoin: miter; stroke-miterlimit: 4; fill: rgb(255,255,255); fill-rule: nonzero; opacity: 1;" vector-effect="non-scaling-stroke"  transform=" translate(-2843.52, -2528.57)" d="M 1385 4373 C 1369 4358 1369 4356 1385 4348 C 1395 4342 1406 4342 1414 4349 C 1422 4356 1438 4356 1461 4350 C 1531 4331 1954 4260 2146 4235 C 2383 4204 2414 4196 2448 4163 C 2473 4138 2475 4137 2534 4149 C 2592 4160 2606 4159 2805 4116 C 3457 3977 4003 3850 4021 3834 C 4055 3803 4061 3755 4048 3611 C 4040 3522 4033 3485 4028 3501 C 4024 3515 4023 3503 4026 3475 C 4031 3429 4023 3343 3970 2825 C 3951 2641 3943 2548 3900 2055 C 3878 1795 3845 1338 3835 1148 C 3831 1072 3824 1022 3819 1026 C 3813 1029 3812 1020 3815 1003 C 3820 980 3819 978 3810 990 C 3800 1003 3799 1002 3803 985 C 3805 971 3798 958 3782 945 C 3758 927 3757 927 3764 945 C 3775 975 3788 1096 3795 1230 C 3803 1391 3836 1854 3850 1990 C 3869 2178 3890 2453 3890 2522 C 3890 2597 3907 2623 3913 2558 L 3917 2515 L 3918 2566 C 3919 2593 3916 2620 3910 2626 C 3904 2632 3905 2682 3915 2773 C 3923 2849 3936 3006 3945 3123 C 3953 3240 3966 3391 3972 3460 C 3987 3604 3986 3711 3971 3737 C 3963 3751 3961 3752 3960 3740 C 3960 3729 3958 3728 3952 3738 C 3947 3745 3945 3722 3946 3688 C 3948 3637 3947 3632 3941 3660 C 3936 3682 3932 3688 3930 3675 C 3928 3658 3927 3658 3920 3680 C 3911 3709 3905 3635 3907 3515 C 3908 3477 3906 3455 3903 3468 C 3901 3480 3894 3487 3888 3484 C 3882 3480 3880 3488 3884 3506 C 3890 3536 3893 3599 3891 3661 C 3890 3680 3884 3704 3878 3713 C 3867 3727 3865 3710 3865 3618 C 3865 3497 3854 3322 3840 3225 C 3828 3146 3838 3403 3851 3515 C 3856 3559 3859 3613 3859 3635 L 3857 3675 L 3850 3635 L 3843 3595 L 3841 3636 C 3841 3661 3832 3687 3821 3701 L 3801 3725 L 3809 3690 C 3818 3645 3803 3560 3788 3581 C 3782 3591 3781 3585 3785 3563 C 3788 3546 3784 3489 3775 3436 C 3766 3383 3761 3336 3765 3330 C 3768 3325 3766 3320 3761 3320 C 3755 3320 3749 3303 3749 3283 C 3747 3253 3746 3251 3743 3272 C 3741 3287 3748 3351 3760 3416 C 3771 3480 3779 3534 3777 3537 C 3773 3540 3658 2981 3655 2944 C 3654 2933 3651 2920 3648 2914 C 3645 2909 3639 2887 3636 2865 C 3632 2843 3604 2715 3575 2580 C 3513 2298 3480 2119 3487 2107 C 3489 2103 3487 2094 3482 2087 C 3476 2080 3469 2057 3466 2035 C 3463 2013 3448 1930 3431 1851 C 3415 1771 3402 1704 3402 1701 C 3405 1684 3386 1599 3379 1594 C 3374 1591 3372 1584 3376 1579 C 3379 1574 3376 1563 3370 1555 C 3364 1547 3361 1536 3364 1531 C 3368 1526 3366 1518 3360 1515 C 3354 1511 3352 1499 3356 1488 C 3360 1473 3359 1470 3350 1475 C 3341 1480 3339 1479 3344 1472 C 3350 1462 3309 1261 3292 1220 C 3289 1212 3285 1198 3284 1190 C 3283 1182 3270 1130 3257 1075 C 3243 1020 3234 972 3236 968 C 3239 963 3236 960 3230 960 C 3223 960 3220 953 3224 945 C 3227 937 3225 930 3219 930 C 3213 930 3210 923 3214 915 C 3217 907 3216 900 3211 900 C 3206 900 3203 889 3203 876 C 3203 840 3155 743 3130 730 C 3119 724 3099 720 3087 722 C 3066 726 3066 727 3092 739 C 3120 753 3155 816 3164 866 C 3166 882 3169 896 3170 898 C 3172 899 3173 903 3174 908 C 3175 912 3179 920 3183 927 C 3187 933 3187 946 3183 956 C 3179 968 3180 971 3189 966 C 3198 960 3199 966 3194 986 C 3189 1006 3190 1011 3200 1005 C 3209 1000 3210 1003 3206 1016 C 3203 1027 3209 1083 3220 1140 C 3231 1198 3240 1252 3240 1260 C 3239 1297 3222 1239 3205 1145 C 3151 833 3110 727 3048 743 C 3025 749 3025 749 3050 730 C 3084 704 3159 679 3234 670 C 3299 662 3466 671 3720 695 C 3868 710 4112 758 4175 785 C 4192 792 4212 801 4220 804 C 4257 819 4295 848 4295 861 C 4295 869 4300 878 4305 882 C 4311 887 4310 890 4303 890 C 4296 890 4290 895 4290 901 C 4290 906 4294 909 4299 905 C 4305 902 4309 908 4309 917 C 4309 927 4311 954 4313 978 C 4315 1001 4314 1020 4311 1020 C 4308 1020 4292 1038 4276 1060 C 4259 1082 4240 1100 4233 1100 C 4226 1100 4220 1105 4220 1112 C 4220 1118 4217 1121 4214 1117 C 4211 1114 4178 1127 4142 1145 C 4105 1163 4057 1184 4035 1190 C 4013 1197 3988 1205 3980 1208 C 3972 1211 3959 1214 3951 1216 C 3943 1217 3934 1224 3930 1230 C 3926 1237 3920 1193 3916 1133 C 3912 1073 3904 1017 3899 1009 C 3893 1000 3892 1020 3895 1065 C 3898 1104 3905 1207 3910 1295 C 3920 1451 3945 1749 3995 2293 C 4009 2441 4021 2574 4021 2588 C 4023 2609 4025 2606 4031 2575 C 4036 2547 4037 2558 4035 2615 C 4032 2672 4034 2691 4041 2680 C 4049 2669 4050 2676 4047 2705 C 4041 2751 4061 3040 4069 3040 C 4072 3040 4074 3064 4073 3092 C 4072 3145 4072 3145 4080 3105 C 4086 3076 4088 3089 4085 3155 C 4082 3219 4084 3238 4090 3220 C 4098 3201 4099 3208 4095 3248 C 4089 3325 4101 3472 4112 3440 C 4116 3426 4117 3449 4115 3495 C 4111 3560 4112 3570 4121 3550 C 4128 3536 4133 3496 4132 3460 L 4132 3395 L 4142 3474 C 4150 3537 4149 3554 4138 3561 C 4129 3567 4124 3597 4123 3662 C 4122 3713 4121 3767 4121 3783 C 4120 3799 4107 3824 4088 3845 C 4057 3878 4046 3882 3895 3915 C 3807 3934 3580 3983 3390 4025 C 2817 4149 2512 4210 2411 4219 C 2358 4224 2312 4226 2308 4224 C 2302 4220 1915 4291 1599 4355 C 1501 4374 1417 4390 1412 4390 C 1406 4390 1394 4383 1385 4373 z M 3967 3628 C 3965 3610 3963 3624 3963 3660 C 3963 3696 3965 3710 3967 3693 C 3969 3675 3969 3645 3967 3628 z M 3930 3509 L 3923 3445 L 3922 3535 C 3922 3593 3925 3616 3930 3599 C 3934 3585 3934 3545 3930 3509 z M 3957 3538 C 3955 3525 3953 3533 3953 3555 C 3952 3577 3954 3587 3957 3578 C 3959 3568 3959 3550 3957 3538 z M 3840 3519 C 3840 3513 3836 3512 3830 3515 C 3825 3518 3820 3526 3820 3531 C 3820 3537 3825 3538 3830 3535 C 3836 3532 3840 3524 3840 3519 z M 3947 3448 C 3945 3435 3943 3443 3943 3465 C 3942 3487 3944 3497 3947 3488 C 3949 3478 3949 3460 3947 3448 z M 3869 3249 C 3857 3137 3847 3033 3846 3018 C 3844 2960 3832 2984 3825 3060 C 3821 3105 3821 3144 3824 3147 C 3827 3151 3830 3132 3830 3105 C 3830 3078 3832 3059 3834 3061 C 3838 3065 3846 3130 3876 3408 C 3879 3438 3884 3460 3886 3457 C 3889 3455 3881 3361 3869 3249 z M 3827 3383 C 3825 3367 3823 3378 3823 3405 C 3823 3433 3825 3445 3827 3433 C 3829 3420 3829 3398 3827 3383 z M 3919 3368 C 3919 3344 3916 3331 3913 3338 C 3911 3344 3904 3347 3898 3344 C 3891 3339 3891 3343 3897 3355 C 3903 3365 3905 3381 3903 3391 C 3900 3402 3903 3410 3909 3410 C 3915 3410 3920 3393 3919 3368 z M 3926 3155 C 3917 3019 3910 2897 3910 2883 C 3910 2868 3906 2861 3899 2866 C 3893 2870 3891 2886 3894 2905 C 3898 2922 3902 2975 3905 3021 C 3915 3194 3933 3410 3937 3406 C 3939 3404 3934 3291 3926 3155 z M 3797 3363 C 3794 3353 3792 3359 3792 3375 C 3792 3392 3794 3399 3797 3393 C 3799 3386 3799 3372 3797 3363 z M 3787 3278 C 3785 3265 3783 3273 3783 3295 C 3782 3317 3784 3327 3787 3318 C 3789 3308 3789 3290 3787 3278 z M 3815 3159 C 3813 3065 3809 2986 3806 2983 C 3803 2980 3798 2991 3795 3006 C 3791 3022 3787 3040 3786 3045 C 3779 3070 3740 2659 3740 2568 C 3740 2552 3745 2540 3751 2540 C 3757 2540 3759 2548 3755 2559 C 3752 2569 3756 2633 3764 2701 C 3771 2769 3775 2840 3773 2859 C 3769 2882 3771 2891 3778 2886 C 3786 2881 3788 2896 3785 2932 C 3781 2981 3781 2983 3792 2953 C 3800 2927 3798 2869 3781 2688 C 3758 2441 3735 2150 3725 1985 C 3722 1930 3715 1838 3710 1780 C 3705 1722 3699 1623 3696 1560 C 3692 1465 3693 1456 3700 1509 C 3715 1616 3720 1601 3715 1463 C 3704 1171 3697 1064 3689 1095 C 3683 1115 3682 1104 3685 1063 C 3688 1023 3686 1000 3679 1000 C 3674 1000 3672 996 3675 990 C 3684 975 3651 918 3638 926 C 3631 931 3629 928 3633 917 C 3636 908 3635 898 3631 896 C 3622 890 3623 918 3635 980 C 3643 1020 3645 1022 3651 1000 C 3655 986 3656 1004 3654 1040 C 3652 1087 3653 1097 3659 1075 C 3667 1047 3668 1047 3669 1070 C 3669 1084 3665 1113 3660 1135 C 3655 1157 3655 1177 3659 1180 C 3664 1183 3668 1237 3668 1300 C 3669 1411 3680 1590 3699 1808 C 3708 1907 3699 2145 3685 2158 C 3682 2161 3682 2117 3686 2060 C 3690 1996 3686 1867 3676 1730 C 3668 1606 3656 1422 3650 1320 C 3639 1126 3626 1011 3609 948 C 3604 927 3602 904 3606 898 C 3610 891 3609 890 3602 894 C 3596 897 3586 891 3580 880 C 3574 869 3565 860 3559 860 C 3554 860 3556 870 3565 883 C 3595 930 3620 1120 3635 1425 C 3638 1491 3648 1626 3656 1725 C 3665 1840 3667 1916 3661 1935 C 3653 1960 3651 1954 3650 1895 C 3648 1857 3648 1805 3650 1780 C 3651 1747 3649 1738 3641 1746 C 3630 1756 3632 1805 3653 2120 C 3655 2145 3657 2121 3658 2068 C 3659 2014 3665 1968 3670 1965 C 3678 1960 3679 1987 3675 2047 C 3672 2095 3673 2185 3678 2245 L 3687 2355 L 3689 2273 C 3689 2225 3695 2188 3701 2184 C 3709 2179 3710 2195 3705 2239 C 3700 2284 3701 2300 3710 2300 C 3719 2300 3721 2315 3716 2358 C 3713 2389 3714 2458 3719 2510 C 3725 2562 3736 2689 3745 2792 C 3753 2895 3765 3002 3770 3031 C 3776 3059 3780 3085 3780 3089 C 3780 3092 3784 3089 3789 3081 C 3794 3073 3800 3118 3805 3199 C 3809 3271 3814 3330 3816 3330 C 3818 3330 3818 3253 3815 3159 z M 3909 3225 C 3909 3199 3907 3197 3899 3215 C 3892 3230 3891 3224 3895 3193 C 3898 3167 3896 3150 3890 3150 C 3879 3150 3877 3235 3887 3295 L 3894 3335 L 3901 3295 C 3906 3273 3909 3242 3909 3225 z M 3739 3213 C 3739 3188 3738 3187 3730 3205 C 3718 3232 3718 3240 3730 3240 C 3736 3240 3740 3228 3739 3213 z M 3777 3193 C 3774 3183 3772 3191 3772 3210 C 3772 3229 3774 3237 3777 3228 C 3779 3218 3779 3202 3777 3193 z M 3730 3138 C 3730 3102 3726 3103 3716 3143 C 3712 3159 3714 3170 3720 3170 C 3725 3170 3730 3156 3730 3138 z M 3767 3113 C 3764 3103 3762 3111 3762 3130 C 3762 3149 3764 3157 3767 3148 C 3769 3138 3769 3122 3767 3113 z M 3896 3093 C 3893 3072 3890 3030 3889 3000 C 3888 2955 3886 2950 3879 2970 C 3873 2988 3872 2979 3875 2940 C 3878 2910 3880 2872 3880 2857 C 3880 2841 3884 2831 3890 2835 C 3903 2843 3903 2817 3889 2705 C 3883 2656 3878 2581 3878 2540 C 3878 2461 3875 2459 3861 2531 L 3853 2575 L 3845 2527 C 3841 2498 3842 2453 3848 2417 L 3859 2355 L 3855 2420 C 3852 2471 3854 2481 3862 2465 C 3873 2446 3864 2288 3840 2075 C 3835 2031 3817 1786 3800 1530 C 3783 1274 3765 1038 3759 1005 C 3748 942 3725 896 3710 905 C 3705 908 3699 906 3695 900 C 3685 884 3660 888 3666 905 C 3670 913 3677 917 3683 913 C 3688 910 3691 911 3687 916 C 3684 921 3688 952 3696 985 C 3704 1020 3713 1125 3716 1235 C 3719 1340 3726 1435 3732 1446 C 3737 1458 3740 1492 3738 1521 C 3735 1551 3739 1678 3747 1805 C 3754 1931 3758 2040 3756 2047 C 3753 2054 3755 2062 3760 2065 C 3765 2068 3767 2132 3765 2207 C 3763 2311 3765 2339 3773 2325 C 3779 2314 3784 2278 3785 2245 C 3785 2175 3762 1814 3754 1755 C 3750 1733 3752 1719 3756 1723 C 3767 1733 3797 2117 3807 2375 C 3812 2508 3817 2551 3822 2520 C 3826 2493 3827 2521 3826 2590 C 3824 2667 3825 2692 3831 2665 C 3836 2637 3837 2647 3833 2700 C 3826 2802 3836 2786 3852 2670 C 3859 2618 3866 2586 3868 2599 C 3870 2612 3864 2668 3855 2722 C 3846 2777 3841 2824 3844 2828 C 3847 2831 3850 2825 3851 2814 C 3852 2804 3856 2815 3861 2840 C 3866 2867 3866 2886 3860 2890 C 3854 2894 3855 2939 3862 3013 C 3871 3104 3877 3130 3888 3130 C 3899 3130 3901 3122 3896 3093 z M 3714 3094 C 3717 3086 3716 3082 3710 3085 C 3704 3088 3700 3095 3700 3101 C 3700 3115 3707 3112 3714 3094 z M 3757 3043 C 3754 3033 3752 3041 3752 3060 C 3752 3079 3754 3087 3757 3078 C 3759 3068 3759 3052 3757 3043 z M 3697 3048 C 3694 3040 3691 3043 3691 3054 C 3690 3065 3693 3071 3696 3067 C 3699 3064 3700 3055 3697 3048 z M 3717 3038 C 3714 3031 3712 3036 3712 3050 C 3712 3064 3714 3069 3717 3063 C 3719 3056 3719 3044 3717 3038 z M 3687 3008 C 3684 3000 3681 3003 3681 3014 C 3680 3025 3683 3031 3686 3027 C 3689 3024 3690 3015 3687 3008 z M 3747 2973 C 3744 2963 3742 2971 3742 2990 C 3742 3009 3744 3017 3747 3008 C 3749 2998 3749 2982 3747 2973 z M 3707 2988 C 3704 2980 3701 2983 3701 2994 C 3700 3005 3703 3011 3706 3007 C 3709 3004 3710 2995 3707 2988 z M 3681 2935 C 3675 2900 3672 2894 3671 2915 C 3670 2945 3680 2993 3686 2988 C 3688 2986 3685 2962 3681 2935 z M 3707 2948 C 3704 2940 3701 2943 3701 2954 C 3700 2965 3703 2971 3706 2967 C 3709 2964 3710 2955 3707 2948 z M 3737 2888 C 3735 2875 3733 2883 3733 2905 C 3732 2927 3734 2937 3737 2928 C 3739 2918 3739 2900 3737 2888 z M 3837 2908 C 3834 2900 3831 2903 3831 2914 C 3830 2925 3833 2931 3836 2927 C 3839 2924 3840 2915 3837 2908 z M 3829 2833 C 3830 2816 3826 2798 3820 2795 C 3814 2791 3810 2812 3811 2852 C 3812 2899 3814 2909 3820 2890 C 3824 2876 3828 2851 3829 2833 z M 3667 2833 C 3664 2823 3662 2831 3662 2850 C 3662 2869 3664 2877 3667 2868 C 3669 2858 3669 2842 3667 2833 z M 3687 2828 C 3684 2820 3681 2823 3681 2834 C 3680 2845 3683 2851 3686 2847 C 3689 2844 3690 2835 3687 2828 z M 3727 2758 C 3725 2740 3723 2754 3723 2790 C 3723 2826 3725 2840 3727 2823 C 3729 2805 3729 2775 3727 2758 z M 3707 2793 C 3704 2783 3702 2789 3702 2805 C 3702 2822 3704 2829 3707 2823 C 3709 2816 3709 2802 3707 2793 z M 3646 2694 C 3638 2634 3622 2495 3610 2385 C 3598 2275 3584 2175 3579 2162 C 3574 2149 3569 2122 3569 2102 C 3568 2079 3566 2073 3563 2088 C 3561 2100 3568 2172 3579 2248 C 3590 2323 3604 2432 3610 2490 C 3624 2628 3651 2812 3657 2807 C 3659 2804 3654 2753 3646 2694 z M 3807 2643 C 3805 2622 3803 2637 3803 2675 C 3803 2714 3805 2730 3807 2713 C 3809 2695 3809 2663 3807 2643 z M 3667 2688 C 3664 2681 3662 2686 3662 2700 C 3662 2714 3664 2719 3667 2713 C 3669 2706 3669 2694 3667 2688 z M 3715 2625 C 3711 2583 3705 2551 3703 2554 C 3700 2557 3701 2593 3705 2635 C 3709 2677 3714 2709 3717 2706 C 3720 2704 3719 2667 3715 2625 z M 3607 2638 C 3604 2631 3602 2636 3602 2650 C 3602 2664 3604 2669 3607 2663 C 3609 2656 3609 2644 3607 2638 z M 3681 2615 C 3675 2580 3672 2574 3671 2595 C 3670 2625 3680 2673 3686 2668 C 3688 2666 3685 2642 3681 2615 z M 3657 2613 C 3654 2603 3652 2609 3652 2625 C 3652 2642 3654 2649 3657 2643 C 3659 2636 3659 2622 3657 2613 z M 3595 2553 C 3591 2521 3571 2403 3550 2290 C 3506 2054 3488 1936 3460 1685 C 3436 1475 3413 1321 3363 1045 C 3329 855 3301 762 3280 775 C 3275 778 3273 774 3276 766 C 3279 758 3273 747 3261 741 C 3237 728 3217 727 3225 739 C 3228 745 3223 753 3215 758 C 3201 765 3202 775 3223 841 C 3237 882 3264 990 3284 1080 C 3327 1275 3372 1448 3405 1545 C 3419 1586 3440 1695 3454 1805 C 3487 2049 3587 2610 3598 2610 C 3600 2610 3599 2584 3595 2553 z M 3797 2563 C 3794 2553 3792 2559 3792 2575 C 3792 2592 3794 2599 3797 2593 C 3799 2586 3799 2572 3797 2563 z M 3647 2523 C 3644 2513 3642 2519 3642 2535 C 3642 2552 3644 2559 3647 2553 C 3649 2546 3649 2532 3647 2523 z M 3660 2413 C 3645 2236 3640 2208 3645 2335 C 3651 2458 3661 2562 3668 2556 C 3670 2553 3667 2489 3660 2413 z M 3697 2428 C 3695 2404 3693 2421 3693 2465 C 3693 2509 3695 2528 3697 2508 C 3699 2487 3699 2451 3697 2428 z M 3787 2488 C 3784 2481 3782 2486 3782 2500 C 3782 2514 3784 2519 3787 2513 C 3789 2506 3789 2494 3787 2488 z M 3794 2388 C 3803 2308 3799 2289 3785 2345 C 3769 2405 3767 2440 3779 2440 C 3783 2440 3790 2416 3794 2388 z M 3677 2398 C 3674 2390 3671 2393 3671 2404 C 3670 2415 3673 2421 3676 2417 C 3679 2414 3680 2405 3677 2398 z M 3627 2333 C 3624 2323 3622 2331 3622 2350 C 3622 2369 3624 2377 3627 2368 C 3629 2358 3629 2342 3627 2333 z M 3667 2243 C 3665 2227 3663 2240 3663 2270 C 3663 2300 3665 2313 3667 2298 C 3669 2282 3669 2258 3667 2243 z M 3610 2154 C 3594 1952 3591 1936 3596 2065 C 3601 2192 3610 2293 3617 2286 C 3619 2284 3616 2224 3610 2154 z M 3640 2115 C 3640 2058 3636 2020 3630 2020 C 3625 2020 3620 2042 3620 2069 C 3620 2121 3630 2210 3636 2210 C 3638 2210 3640 2167 3640 2115 z M 3537 2023 C 3534 2013 3532 2019 3532 2035 C 3532 2052 3534 2059 3537 2053 C 3539 2046 3539 2032 3537 2023 z M 3557 1993 C 3555 1977 3553 1988 3553 2015 C 3553 2043 3555 2055 3557 2043 C 3559 2030 3559 2008 3557 1993 z M 3577 1963 C 3575 1947 3573 1960 3573 1990 C 3573 2020 3575 2033 3577 2018 C 3579 2002 3579 1978 3577 1963 z M 3629 1937 C 3628 1897 3627 1897 3620 1925 C 3609 1969 3609 1992 3620 1985 C 3626 1982 3629 1960 3629 1937 z M 3527 1918 C 3525 1905 3523 1913 3523 1935 C 3522 1957 3524 1967 3527 1958 C 3529 1948 3529 1930 3527 1918 z M 3547 1853 C 3543 1793 3529 1644 3515 1520 C 3501 1396 3488 1242 3487 1177 C 3486 1113 3482 1070 3478 1082 C 3473 1101 3472 1099 3470 1070 C 3466 993 3461 958 3445 895 C 3435 858 3430 826 3433 824 C 3451 806 3521 1135 3519 1229 L 3517 1295 L 3509 1216 C 3500 1134 3492 1096 3492 1140 C 3492 1154 3497 1221 3504 1290 C 3515 1397 3518 1406 3520 1355 L 3523 1295 L 3531 1365 C 3535 1404 3536 1448 3533 1463 C 3530 1479 3534 1555 3541 1633 L 3554 1775 L 3567 1665 C 3574 1605 3578 1530 3575 1500 C 3572 1470 3565 1373 3560 1285 C 3550 1130 3515 912 3510 975 C 3508 1001 3507 999 3499 960 C 3494 935 3492 909 3495 902 C 3498 894 3495 892 3488 896 C 3480 901 3479 898 3483 887 C 3486 877 3485 870 3480 870 C 3475 870 3464 857 3456 842 C 3440 811 3406 801 3415 830 C 3430 878 3450 1013 3465 1165 C 3474 1259 3495 1455 3511 1603 C 3527 1750 3540 1890 3540 1915 C 3540 1940 3543 1960 3547 1960 C 3550 1960 3550 1912 3547 1853 z M 3585 1736 C 3588 1730 3588 1766 3586 1815 C 3583 1865 3585 1898 3589 1890 C 3594 1882 3600 1830 3602 1775 C 3605 1720 3603 1686 3599 1700 C 3594 1719 3592 1712 3590 1670 C 3588 1619 3587 1617 3580 1649 C 3575 1668 3569 1740 3567 1809 C 3562 1931 3562 1932 3570 1841 C 3575 1789 3582 1742 3585 1736 z M 3515 1793 C 3512 1744 3500 1642 3490 1565 C 3479 1488 3461 1353 3450 1265 C 3426 1081 3394 926 3373 890 C 3364 873 3361 872 3365 885 C 3369 896 3380 952 3391 1010 C 3402 1068 3415 1135 3420 1160 C 3435 1228 3509 1815 3510 1868 C 3510 1874 3513 1880 3516 1880 C 3520 1880 3519 1841 3515 1793 z M 3617 1833 C 3614 1823 3612 1831 3612 1850 C 3612 1869 3614 1877 3617 1868 C 3619 1858 3619 1842 3617 1833 z M 3620 1473 C 3597 1060 3578 924 3539 878 L 3520 855 L 3535 895 C 3563 970 3580 1094 3591 1290 C 3596 1397 3605 1523 3610 1570 C 3616 1617 3620 1661 3620 1669 C 3620 1677 3623 1681 3626 1678 C 3629 1674 3627 1583 3620 1473 z M 3507 918 C 3504 910 3501 913 3501 924 C 3500 935 3503 941 3506 937 C 3509 934 3510 925 3507 918 z" stroke-linecap="round" />
</g>
		<g transform="matrix(0.13 0 0 -0.13 148.42 6.04)"  >
<path style="stroke: none; stroke-width: 1; stroke-dasharray: none; stroke-linecap: butt; stroke-dashoffset: 0; stroke-linejoin: miter; stroke-miterlimit: 4; fill: rgb(255,255,255); fill-rule: nonzero; opacity: 1;" vector-effect="non-scaling-stroke"  transform=" translate(-3736.39, -2482.32)" d="M 3730 2486 C 3730 2467 3733 2449 3738 2446 C 3742 2444 3744 2459 3742 2481 C 3737 2529 3730 2532 3730 2486 z" stroke-linecap="round" />
</g>
		<g transform="matrix(0.13 0 0 -0.13 146.88 14.99)"  >
<path style="stroke: none; stroke-width: 1; stroke-dasharray: none; stroke-linecap: butt; stroke-dashoffset: 0; stroke-linejoin: miter; stroke-miterlimit: 4; fill: rgb(255,255,255); fill-rule: nonzero; opacity: 1;" vector-effect="non-scaling-stroke"  transform=" translate(-3724.81, -2415.86)" d="M 3721 2414 C 3721 2403 3724 2400 3727 2408 C 3730 2415 3729 2424 3726 2427 C 3723 2431 3720 2425 3721 2414 z" stroke-linecap="round" />
</g>
		<g transform="matrix(0.13 0 0 -0.13 148.28 26.38)"  >
<path style="stroke: none; stroke-width: 1; stroke-dasharray: none; stroke-linecap: butt; stroke-dashoffset: 0; stroke-linejoin: miter; stroke-miterlimit: 4; fill: rgb(255,255,255); fill-rule: nonzero; opacity: 1;" vector-effect="non-scaling-stroke"  transform=" translate(-3735.25, -2330.18)" d="M 3732 2330 C 3732 2311 3734 2303 3737 2313 C 3739 2322 3739 2338 3737 2348 C 3734 2357 3732 2349 3732 2330 z" stroke-linecap="round" />
</g>
		<g transform="matrix(0.13 0 0 -0.13 147.02 42.34)"  >
<path style="stroke: none; stroke-width: 1; stroke-dasharray: none; stroke-linecap: butt; stroke-dashoffset: 0; stroke-linejoin: miter; stroke-miterlimit: 4; fill: rgb(255,255,255); fill-rule: nonzero; opacity: 1;" vector-effect="non-scaling-stroke"  transform=" translate(-3725.75, -2210.18)" d="M 3723 2210 C 3723 2180 3725 2167 3727 2183 C 3729 2198 3729 2222 3727 2238 C 3725 2253 3723 2240 3723 2210 z" stroke-linecap="round" />
</g>
		<g transform="matrix(0.13 0 0 -0.13 145.68 66.79)"  >
<path style="stroke: none; stroke-width: 1; stroke-dasharray: none; stroke-linecap: butt; stroke-dashoffset: 0; stroke-linejoin: miter; stroke-miterlimit: 4; fill: rgb(255,255,255); fill-rule: nonzero; opacity: 1;" vector-effect="non-scaling-stroke"  transform=" translate(-3715.75, -2026.73)" d="M 3713 2025 C 3713 1992 3715 1980 3717 1998 C 3719 2016 3719 2043 3717 2058 C 3715 2073 3713 2058 3713 2025 z" stroke-linecap="round" />
</g>
		<g transform="matrix(0.13 0 0 -0.13 136.22 209.65)"  >
<path style="stroke: none; stroke-width: 1; stroke-dasharray: none; stroke-linecap: butt; stroke-dashoffset: 0; stroke-linejoin: miter; stroke-miterlimit: 4; fill: rgb(255,255,255); fill-rule: nonzero; opacity: 1;" vector-effect="non-scaling-stroke"  transform=" translate(-3644.81, -955.86)" d="M 3641 954 C 3641 943 3644 940 3647 948 C 3650 955 3649 964 3646 967 C 3643 971 3640 965 3641 954 z" stroke-linecap="round" />
</g>
		<g transform="matrix(0.13 0 0 -0.13 167.19 -28.46)"  >
<path style="stroke: none; stroke-width: 1; stroke-dasharray: none; stroke-linecap: butt; stroke-dashoffset: 0; stroke-linejoin: miter; stroke-miterlimit: 4; fill: rgb(255,255,255); fill-rule: nonzero; opacity: 1;" vector-effect="non-scaling-stroke"  transform=" translate(-3877.14, -2740.34)" d="M 3871 2745 L 3873 2675 L 3880 2735 C 3885 2769 3884 2799 3879 2805 C 3874 2810 3871 2787 3871 2745 z" stroke-linecap="round" />
</g>
		<g transform="matrix(0.13 0 0 -0.13 162.15 36.01)"  >
<path style="stroke: none; stroke-width: 1; stroke-dasharray: none; stroke-linecap: butt; stroke-dashoffset: 0; stroke-linejoin: miter; stroke-miterlimit: 4; fill: rgb(255,255,255); fill-rule: nonzero; opacity: 1;" vector-effect="non-scaling-stroke"  transform=" translate(-3839.41, -2256.42)" d="M 3837 2306 C 3833 2279 3831 2234 3831 2206 C 3832 2159 3833 2161 3841 2230 C 3852 2318 3849 2380 3837 2306 z" stroke-linecap="round" />
</g>
		<g transform="matrix(0.13 0 0 -0.13 153.66 40.19)"  >
<path style="stroke: none; stroke-width: 1; stroke-dasharray: none; stroke-linecap: butt; stroke-dashoffset: 0; stroke-linejoin: miter; stroke-miterlimit: 4; fill: rgb(255,255,255); fill-rule: nonzero; opacity: 1;" vector-effect="non-scaling-stroke"  transform=" translate(-3775.62, -2226.52)" d="M 3773 2225 C 3773 2203 3775 2195 3777 2208 C 3779 2220 3779 2238 3777 2248 C 3774 2257 3772 2247 3773 2225 z" stroke-linecap="round" />
</g>
		<g transform="matrix(0.13 0 0 -0.13 160.35 58.79)"  >
<path style="stroke: none; stroke-width: 1; stroke-dasharray: none; stroke-linecap: butt; stroke-dashoffset: 0; stroke-linejoin: miter; stroke-miterlimit: 4; fill: rgb(255,255,255); fill-rule: nonzero; opacity: 1;" vector-effect="non-scaling-stroke"  transform=" translate(-3825.75, -2086.73)" d="M 3823 2085 C 3823 2052 3825 2040 3827 2058 C 3829 2076 3829 2103 3827 2118 C 3825 2133 3823 2118 3823 2085 z" stroke-linecap="round" />
</g>
		<g transform="matrix(0.13 0 0 -0.13 157.68 80.16)"  >
<path style="stroke: none; stroke-width: 1; stroke-dasharray: none; stroke-linecap: butt; stroke-dashoffset: 0; stroke-linejoin: miter; stroke-miterlimit: 4; fill: rgb(255,255,255); fill-rule: nonzero; opacity: 1;" vector-effect="non-scaling-stroke"  transform=" translate(-3805.75, -1926.6)" d="M 3803 1925 C 3803 1898 3805 1887 3807 1903 C 3809 1918 3809 1940 3807 1953 C 3805 1965 3803 1953 3803 1925 z" stroke-linecap="round" />
</g>
		<g transform="matrix(0.13 0 0 -0.13 153.63 139.68)"  >
<path style="stroke: none; stroke-width: 1; stroke-dasharray: none; stroke-linecap: butt; stroke-dashoffset: 0; stroke-linejoin: miter; stroke-miterlimit: 4; fill: rgb(255,255,255); fill-rule: nonzero; opacity: 1;" vector-effect="non-scaling-stroke"  transform=" translate(-3775.86, -1471.76)" d="M 3776 1584 C 3766 1436 3756 1261 3755 1195 C 3752 1079 3752 1077 3760 1160 C 3773 1289 3803 1827 3798 1841 C 3796 1848 3786 1732 3776 1584 z" stroke-linecap="round" />
</g>
		<g transform="matrix(0.13 0 0 -0.13 147.6 204.79)"  >
<path style="stroke: none; stroke-width: 1; stroke-dasharray: none; stroke-linecap: butt; stroke-dashoffset: 0; stroke-linejoin: miter; stroke-miterlimit: 4; fill: rgb(255,255,255); fill-rule: nonzero; opacity: 1;" vector-effect="non-scaling-stroke"  transform=" translate(-3730.53, -990.7)" d="M 3740 1036 C 3740 1018 3733 983 3725 960 C 3706 906 3706 897 3726 933 C 3742 963 3758 1070 3746 1070 C 3743 1070 3740 1055 3740 1036 z" stroke-linecap="round" />
</g>
		<g transform="matrix(0.13 0 0 -0.13 124.59 124.48)"  >
<path style="stroke: none; stroke-width: 1; stroke-dasharray: none; stroke-linecap: butt; stroke-dashoffset: 0; stroke-linejoin: miter; stroke-miterlimit: 4; fill: rgb(255,255,255); fill-rule: nonzero; opacity: 1;" vector-effect="non-scaling-stroke"  transform=" translate(-3557.67, -1593.32)" d="M 3551 1614 C 3552 1587 3556 1552 3560 1535 C 3565 1517 3566 1536 3563 1580 C 3556 1666 3549 1687 3551 1614 z" stroke-linecap="round" />
</g>
		<g transform="matrix(0.13 0 0 -0.13 123.57 138.97)"  >
<path style="stroke: none; stroke-width: 1; stroke-dasharray: none; stroke-linecap: butt; stroke-dashoffset: 0; stroke-linejoin: miter; stroke-miterlimit: 4; fill: rgb(255,255,255); fill-rule: nonzero; opacity: 1;" vector-effect="non-scaling-stroke"  transform=" translate(-3550.08, -1484.92)" d="M 3542 1530 C 3542 1516 3545 1485 3549 1460 C 3555 1426 3558 1423 3558 1445 C 3559 1462 3555 1493 3551 1515 C 3545 1540 3542 1546 3542 1530 z" stroke-linecap="round" />
</g>
		<g transform="matrix(0.13 0 0 -0.13 121.66 171.93)"  >
<path style="stroke: none; stroke-width: 1; stroke-dasharray: none; stroke-linecap: butt; stroke-dashoffset: 0; stroke-linejoin: miter; stroke-miterlimit: 4; fill: rgb(255,255,255); fill-rule: nonzero; opacity: 1;" vector-effect="non-scaling-stroke"  transform=" translate(-3535.91, -1235.26)" d="M 3536 1283 C 3532 1223 3527 1150 3525 1120 C 3521 1076 3522 1071 3529 1094 C 3539 1123 3555 1390 3547 1390 C 3545 1390 3540 1342 3536 1283 z" stroke-linecap="round" />
</g>
		<g transform="matrix(0.13 0 0 -0.13 118.94 198.87)"  >
<path style="stroke: none; stroke-width: 1; stroke-dasharray: none; stroke-linecap: butt; stroke-dashoffset: 0; stroke-linejoin: miter; stroke-miterlimit: 4; fill: rgb(255,255,255); fill-rule: nonzero; opacity: 1;" vector-effect="non-scaling-stroke"  transform=" translate(-3515.25, -1036.61)" d="M 3512 1035 C 3512 1019 3514 1013 3517 1023 C 3519 1032 3519 1046 3517 1053 C 3514 1059 3512 1052 3512 1035 z" stroke-linecap="round" />
</g>
		<g transform="matrix(0.13 0 0 -0.13 -201.13 -238)"  >
<path style="stroke: none; stroke-width: 1; stroke-dasharray: none; stroke-linecap: butt; stroke-dashoffset: 0; stroke-linejoin: miter; stroke-miterlimit: 4; fill: rgb(255,255,255); fill-rule: nonzero; opacity: 1;" vector-effect="non-scaling-stroke"  transform=" translate(-1120.08, -4312.4)" d="M 1122 4335 C 1015 4322 922 4306 914 4299 C 877 4268 920 4253 974 4279 C 1002 4292 1067 4304 1178 4317 C 1294 4329 1340 4338 1340 4347 C 1340 4354 1334 4360 1328 4359 C 1321 4358 1228 4347 1122 4335 z" stroke-linecap="round" />
</g>
		<g transform="matrix(0.13 0 0 -0.13 -194.45 -236.22)"  >
<path style="stroke: none; stroke-width: 1; stroke-dasharray: none; stroke-linecap: butt; stroke-dashoffset: 0; stroke-linejoin: miter; stroke-miterlimit: 4; fill: rgb(255,255,255); fill-rule: nonzero; opacity: 1;" vector-effect="non-scaling-stroke"  transform=" translate(-1165, -4300)" d="M 1155 4300 C 1152 4295 1153 4290 1159 4290 C 1164 4290 1172 4295 1175 4300 C 1178 4306 1177 4310 1171 4310 C 1166 4310 1158 4306 1155 4300 z" stroke-linecap="round" />
</g>
		<g transform="matrix(0.13 0 0 -0.13 -205.36 -234.12)"  >
<path style="stroke: none; stroke-width: 1; stroke-dasharray: none; stroke-linecap: butt; stroke-dashoffset: 0; stroke-linejoin: miter; stroke-miterlimit: 4; fill: rgb(255,255,255); fill-rule: nonzero; opacity: 1;" vector-effect="non-scaling-stroke"  transform=" translate(-1083.93, -4284.23)" d="M 1094 4289 C 1091 4283 1076 4281 1061 4284 C 1040 4289 1038 4288 1052 4280 C 1063 4273 1082 4272 1102 4278 C 1127 4284 1130 4288 1118 4293 C 1108 4296 1098 4294 1094 4289 z" stroke-linecap="round" />
</g>
		<g transform="matrix(0.13 0 0 -0.13 -214.47 -232.55)"  >
<path style="stroke: none; stroke-width: 1; stroke-dasharray: none; stroke-linecap: butt; stroke-dashoffset: 0; stroke-linejoin: miter; stroke-miterlimit: 4; fill: rgb(255,255,255); fill-rule: nonzero; opacity: 1;" vector-effect="non-scaling-stroke"  transform=" translate(-1015, -4272.5)" d="M 997 4273 C 994 4268 1002 4265 1015 4265 C 1028 4265 1036 4268 1033 4273 C 1031 4277 1023 4280 1015 4280 C 1007 4280 999 4277 997 4273 z" stroke-linecap="round" />
</g>
		<g transform="matrix(0.13 0 0 -0.13 -212.54 -229.33)"  >
<path style="stroke: none; stroke-width: 1; stroke-dasharray: none; stroke-linecap: butt; stroke-dashoffset: 0; stroke-linejoin: miter; stroke-miterlimit: 4; fill: rgb(255,255,255); fill-rule: nonzero; opacity: 1;" vector-effect="non-scaling-stroke"  transform=" translate(-1029.44, -4248.33)" d="M 1018 4248 C 1023 4243 1034 4240 1041 4242 C 1049 4245 1044 4249 1031 4253 C 1014 4257 1010 4256 1018 4248 z" stroke-linecap="round" />
</g>
		<g transform="matrix(0.13 0 0 -0.13 -43.95 -106.88)"  >
<path style="stroke: none; stroke-width: 1; stroke-dasharray: none; stroke-linecap: butt; stroke-dashoffset: 0; stroke-linejoin: miter; stroke-miterlimit: 4; fill: rgb(255,255,255); fill-rule: nonzero; opacity: 1;" vector-effect="non-scaling-stroke"  transform=" translate(-2295.3, -3310.17)" d="M 2343 3995 C 2315 3815 2313 3798 2295 3470 C 2280 3192 2261 2954 2235 2692 C 2217 2516 2217 2452 2236 2580 C 2265 2781 2301 3118 2325 3420 C 2365 3913 2372 4021 2368 4080 C 2365 4129 2363 4120 2343 3995 z" stroke-linecap="round" />
</g>
		<g transform="matrix(0.13 0 0 -0.13 204.35 -163.78)"  >
<path style="stroke: none; stroke-width: 1; stroke-dasharray: none; stroke-linecap: butt; stroke-dashoffset: 0; stroke-linejoin: miter; stroke-miterlimit: 4; fill: rgb(255,255,255); fill-rule: nonzero; opacity: 1;" vector-effect="non-scaling-stroke"  transform=" translate(-4156.06, -3755.13)" d="M 4160 3802 C 4160 3784 4155 3761 4148 3750 C 4138 3735 4139 3726 4150 3706 C 4157 3692 4165 3681 4167 3683 C 4173 3689 4172 3821 4166 3827 C 4163 3830 4160 3819 4160 3802 z" stroke-linecap="round" />
</g>
		<g transform="matrix(0.13 0 0 -0.13 182.24 -122.74)"  >
<path style="stroke: none; stroke-width: 1; stroke-dasharray: none; stroke-linecap: butt; stroke-dashoffset: 0; stroke-linejoin: miter; stroke-miterlimit: 4; fill: rgb(255,255,255); fill-rule: nonzero; opacity: 1;" vector-effect="non-scaling-stroke"  transform=" translate(-3990.65, -3440.14)" d="M 3999 3783 C 4013 3756 4013 3670 4000 3602 C 3987 3532 3958 3143 3962 3089 C 3964 3065 3969 3101 3974 3170 C 3978 3239 3992 3387 4004 3500 C 4026 3702 4025 3769 4000 3793 C 3990 3803 3990 3800 3999 3783 z" stroke-linecap="round" />
</g>
		<g transform="matrix(0.13 0 0 -0.13 176.22 -165.76)"  >
<path style="stroke: none; stroke-width: 1; stroke-dasharray: none; stroke-linecap: butt; stroke-dashoffset: 0; stroke-linejoin: miter; stroke-miterlimit: 4; fill: rgb(255,255,255); fill-rule: nonzero; opacity: 1;" vector-effect="non-scaling-stroke"  transform=" translate(-3945, -3771.5)" d="M 3936 3772 C 3933 3767 3937 3763 3945 3763 C 3953 3763 3957 3767 3954 3772 C 3951 3776 3947 3780 3945 3780 C 3943 3780 3939 3776 3936 3772 z" stroke-linecap="round" />
</g>
		<g transform="matrix(0.13 0 0 -0.13 189.55 -155.68)"  >
<path style="stroke: none; stroke-width: 1; stroke-dasharray: none; stroke-linecap: butt; stroke-dashoffset: 0; stroke-linejoin: miter; stroke-miterlimit: 4; fill: rgb(255,255,255); fill-rule: nonzero; opacity: 1;" vector-effect="non-scaling-stroke"  transform=" translate(-4044.81, -3695.86)" d="M 4041 3694 C 4041 3683 4044 3680 4047 3688 C 4050 3695 4049 3704 4046 3707 C 4043 3711 4040 3705 4041 3694 z" stroke-linecap="round" />
</g>
		<g transform="matrix(0.13 0 0 -0.13 131.14 -89.56)"  >
<path style="stroke: none; stroke-width: 1; stroke-dasharray: none; stroke-linecap: butt; stroke-dashoffset: 0; stroke-linejoin: miter; stroke-miterlimit: 4; fill: rgb(255,255,255); fill-rule: nonzero; opacity: 1;" vector-effect="non-scaling-stroke"  transform=" translate(-3609.23, -3187.94)" d="M 3686 3622 C 3688 3561 3687 3559 3680 3600 L 3673 3645 L 3670 3605 C 3669 3581 3666 3573 3663 3585 C 3653 3627 3645 3617 3643 3562 C 3642 3531 3619 3378 3591 3223 C 3563 3068 3543 2934 3546 2926 C 3550 2917 3547 2910 3540 2910 C 3533 2910 3530 2902 3533 2890 C 3536 2879 3534 2867 3529 2864 C 3523 2861 3522 2850 3525 2840 C 3528 2830 3527 2819 3522 2816 C 3506 2806 3498 2722 3510 2703 C 3519 2688 3520 2692 3516 2723 C 3513 2743 3515 2758 3519 2756 C 3526 2751 3558 2908 3566 2985 C 3567 3002 3570 3015 3571 3015 C 3572 3015 3574 3026 3575 3040 C 3577 3069 3601 3204 3632 3365 C 3652 3472 3656 3497 3659 3533 C 3661 3568 3680 3549 3680 3510 C 3680 3488 3675 3470 3669 3470 C 3663 3470 3661 3461 3665 3450 C 3669 3438 3667 3430 3660 3430 C 3652 3430 3651 3420 3655 3400 C 3659 3384 3658 3370 3653 3370 C 3645 3370 3627 3264 3590 3001 C 3586 2971 3586 2936 3589 2922 C 3597 2894 3593 2880 3655 3207 C 3710 3500 3722 3595 3710 3640 C 3694 3701 3685 3694 3686 3622 z" stroke-linecap="round" />
</g>
		<g transform="matrix(0.13 0 0 -0.13 202.88 -147.45)"  >
<path style="stroke: none; stroke-width: 1; stroke-dasharray: none; stroke-linecap: butt; stroke-dashoffset: 0; stroke-linejoin: miter; stroke-miterlimit: 4; fill: rgb(255,255,255); fill-rule: nonzero; opacity: 1;" vector-effect="non-scaling-stroke"  transform=" translate(-4145, -3633.23)" d="M 4131 3665 C 4131 3648 4134 3630 4139 3625 C 4144 3619 4150 3604 4153 3590 C 4155 3576 4158 3589 4159 3618 C 4159 3648 4156 3669 4151 3665 C 4146 3662 4139 3668 4137 3677 C 4134 3687 4132 3682 4131 3665 z" stroke-linecap="round" />
</g>
		<g transform="matrix(0.13 0 0 -0.13 188.22 -143.68)"  >
<path style="stroke: none; stroke-width: 1; stroke-dasharray: none; stroke-linecap: butt; stroke-dashoffset: 0; stroke-linejoin: miter; stroke-miterlimit: 4; fill: rgb(255,255,255); fill-rule: nonzero; opacity: 1;" vector-effect="non-scaling-stroke"  transform=" translate(-4034.81, -3605.86)" d="M 4031 3604 C 4031 3593 4034 3590 4037 3598 C 4040 3605 4039 3614 4036 3617 C 4033 3621 4030 3615 4031 3604 z" stroke-linecap="round" />
</g>
		<g transform="matrix(0.13 0 0 -0.13 185.55 -114.35)"  >
<path style="stroke: none; stroke-width: 1; stroke-dasharray: none; stroke-linecap: butt; stroke-dashoffset: 0; stroke-linejoin: miter; stroke-miterlimit: 4; fill: rgb(255,255,255); fill-rule: nonzero; opacity: 1;" vector-effect="non-scaling-stroke"  transform=" translate(-4014.81, -3385.86)" d="M 4011 3384 C 4011 3373 4014 3370 4017 3378 C 4020 3385 4019 3394 4016 3397 C 4013 3401 4010 3395 4011 3384 z" stroke-linecap="round" />
</g>
		<g transform="matrix(0.13 0 0 -0.13 200.28 -108.28)"  >
<path style="stroke: none; stroke-width: 1; stroke-dasharray: none; stroke-linecap: butt; stroke-dashoffset: 0; stroke-linejoin: miter; stroke-miterlimit: 4; fill: rgb(255,255,255); fill-rule: nonzero; opacity: 1;" vector-effect="non-scaling-stroke"  transform=" translate(-4125.25, -3340.18)" d="M 4122 3340 C 4122 3321 4124 3313 4127 3323 C 4129 3332 4129 3348 4127 3358 C 4124 3367 4122 3359 4122 3340 z" stroke-linecap="round" />
</g>
		<g transform="matrix(0.13 0 0 -0.13 197.61 -105.13)"  >
<path style="stroke: none; stroke-width: 1; stroke-dasharray: none; stroke-linecap: butt; stroke-dashoffset: 0; stroke-linejoin: miter; stroke-miterlimit: 4; fill: rgb(255,255,255); fill-rule: nonzero; opacity: 1;" vector-effect="non-scaling-stroke"  transform=" translate(-4105.25, -3316.61)" d="M 4102 3315 C 4102 3299 4104 3293 4107 3303 C 4109 3312 4109 3326 4107 3333 C 4104 3339 4102 3332 4102 3315 z" stroke-linecap="round" />
</g>
		<g transform="matrix(0.13 0 0 -0.13 184.28 -102.93)"  >
<path style="stroke: none; stroke-width: 1; stroke-dasharray: none; stroke-linecap: butt; stroke-dashoffset: 0; stroke-linejoin: miter; stroke-miterlimit: 4; fill: rgb(255,255,255); fill-rule: nonzero; opacity: 1;" vector-effect="non-scaling-stroke"  transform=" translate(-4005.25, -3300.18)" d="M 4002 3300 C 4002 3286 4004 3281 4007 3288 C 4009 3294 4009 3306 4007 3313 C 4004 3319 4002 3314 4002 3300 z" stroke-linecap="round" />
</g>
		<g transform="matrix(0.13 0 0 -0.13 198.94 -94.95)"  >
<path style="stroke: none; stroke-width: 1; stroke-dasharray: none; stroke-linecap: butt; stroke-dashoffset: 0; stroke-linejoin: miter; stroke-miterlimit: 4; fill: rgb(255,255,255); fill-rule: nonzero; opacity: 1;" vector-effect="non-scaling-stroke"  transform=" translate(-4115.25, -3240.18)" d="M 4112 3240 C 4112 3221 4114 3213 4117 3223 C 4119 3232 4119 3248 4117 3258 C 4114 3267 4112 3259 4112 3240 z" stroke-linecap="round" />
</g>
		<g transform="matrix(0.13 0 0 -0.13 182.88 -91.68)"  >
<path style="stroke: none; stroke-width: 1; stroke-dasharray: none; stroke-linecap: butt; stroke-dashoffset: 0; stroke-linejoin: miter; stroke-miterlimit: 4; fill: rgb(255,255,255); fill-rule: nonzero; opacity: 1;" vector-effect="non-scaling-stroke"  transform=" translate(-3994.81, -3215.86)" d="M 3991 3214 C 3991 3203 3994 3200 3997 3208 C 4000 3215 3999 3224 3996 3227 C 3993 3231 3990 3225 3991 3214 z" stroke-linecap="round" />
</g>
		<g transform="matrix(0.13 0 0 -0.13 197.61 -80.27)"  >
<path style="stroke: none; stroke-width: 1; stroke-dasharray: none; stroke-linecap: butt; stroke-dashoffset: 0; stroke-linejoin: miter; stroke-miterlimit: 4; fill: rgb(255,255,255); fill-rule: nonzero; opacity: 1;" vector-effect="non-scaling-stroke"  transform=" translate(-4105.25, -3130.18)" d="M 4102 3130 C 4102 3116 4104 3111 4107 3118 C 4109 3124 4109 3136 4107 3143 C 4104 3149 4102 3144 4102 3130 z" stroke-linecap="round" />
</g>
		<g transform="matrix(0.13 0 0 -0.13 177.68 -55.84)"  >
<path style="stroke: none; stroke-width: 1; stroke-dasharray: none; stroke-linecap: butt; stroke-dashoffset: 0; stroke-linejoin: miter; stroke-miterlimit: 4; fill: rgb(255,255,255); fill-rule: nonzero; opacity: 1;" vector-effect="non-scaling-stroke"  transform=" translate(-3955.75, -2946.6)" d="M 3953 2945 C 3953 2918 3955 2907 3957 2923 C 3959 2938 3959 2960 3957 2973 C 3955 2985 3953 2973 3953 2945 z" stroke-linecap="round" />
</g>
		<g transform="matrix(0.13 0 0 -0.13 176.28 -40.28)"  >
<path style="stroke: none; stroke-width: 1; stroke-dasharray: none; stroke-linecap: butt; stroke-dashoffset: 0; stroke-linejoin: miter; stroke-miterlimit: 4; fill: rgb(255,255,255); fill-rule: nonzero; opacity: 1;" vector-effect="non-scaling-stroke"  transform=" translate(-3945.25, -2830.18)" d="M 3942 2830 C 3942 2811 3944 2803 3947 2813 C 3949 2822 3949 2838 3947 2848 C 3944 2857 3942 2849 3942 2830 z" stroke-linecap="round" />
</g>
		<g transform="matrix(0.13 0 0 -0.13 174.94 -26.95)"  >
<path style="stroke: none; stroke-width: 1; stroke-dasharray: none; stroke-linecap: butt; stroke-dashoffset: 0; stroke-linejoin: miter; stroke-miterlimit: 4; fill: rgb(255,255,255); fill-rule: nonzero; opacity: 1;" vector-effect="non-scaling-stroke"  transform=" translate(-3935.25, -2730.18)" d="M 3932 2730 C 3932 2711 3934 2703 3937 2713 C 3939 2722 3939 2738 3937 2748 C 3934 2757 3932 2749 3932 2730 z" stroke-linecap="round" />
</g>
		<g transform="matrix(0.13 0 0 -0.13 116.39 -14.63)"  >
<path style="stroke: none; stroke-width: 1; stroke-dasharray: none; stroke-linecap: butt; stroke-dashoffset: 0; stroke-linejoin: miter; stroke-miterlimit: 4; fill: rgb(255,255,255); fill-rule: nonzero; opacity: 1;" vector-effect="non-scaling-stroke"  transform=" translate(-3496.34, -2636.95)" d="M 3486 2651 C 3481 2615 3483 2593 3491 2586 C 3499 2578 3500 2583 3495 2609 C 3490 2632 3491 2640 3499 2636 C 3512 2628 3513 2655 3501 2685 C 3495 2699 3491 2691 3486 2651 z" stroke-linecap="round" />
</g>
		<g transform="matrix(0.13 0 0 -0.13 173.55 -15.68)"  >
<path style="stroke: none; stroke-width: 1; stroke-dasharray: none; stroke-linecap: butt; stroke-dashoffset: 0; stroke-linejoin: miter; stroke-miterlimit: 4; fill: rgb(255,255,255); fill-rule: nonzero; opacity: 1;" vector-effect="non-scaling-stroke"  transform=" translate(-3924.81, -2645.86)" d="M 3921 2644 C 3921 2633 3924 2630 3927 2638 C 3930 2645 3929 2654 3926 2657 C 3923 2661 3920 2655 3921 2644 z" stroke-linecap="round" />
</g>
		<g transform="matrix(0.13 0 0 -0.13 114.22 -2.95)"  >
<path style="stroke: none; stroke-width: 1; stroke-dasharray: none; stroke-linecap: butt; stroke-dashoffset: 0; stroke-linejoin: miter; stroke-miterlimit: 4; fill: rgb(255,255,255); fill-rule: nonzero; opacity: 1;" vector-effect="non-scaling-stroke"  transform=" translate(-3480, -2550)" d="M 3470 2565 C 3470 2554 3475 2538 3480 2530 C 3488 2518 3490 2518 3490 2535 C 3490 2546 3485 2562 3480 2570 C 3472 2582 3470 2582 3470 2565 z" stroke-linecap="round" />
</g>
		<g transform="matrix(0.13 0 0 -0.13 110.15 16.41)"  >
<path style="stroke: none; stroke-width: 1; stroke-dasharray: none; stroke-linecap: butt; stroke-dashoffset: 0; stroke-linejoin: miter; stroke-miterlimit: 4; fill: rgb(255,255,255); fill-rule: nonzero; opacity: 1;" vector-effect="non-scaling-stroke"  transform=" translate(-3449.81, -2402.44)" d="M 3465 2495 C 3469 2464 3468 2458 3460 2470 C 3451 2482 3450 2476 3455 2447 C 3460 2418 3458 2410 3449 2416 C 3440 2421 3438 2415 3443 2392 C 3446 2375 3446 2360 3441 2358 C 3429 2354 3417 2280 3428 2280 C 3433 2280 3447 2328 3460 2386 C 3477 2469 3480 2497 3471 2514 C 3461 2532 3461 2529 3465 2495 z" stroke-linecap="round" />
</g>
		<g transform="matrix(0.13 0 0 -0.13 -54.39 11.73)"  >
<path style="stroke: none; stroke-width: 1; stroke-dasharray: none; stroke-linecap: butt; stroke-dashoffset: 0; stroke-linejoin: miter; stroke-miterlimit: 4; fill: rgb(255,255,255); fill-rule: nonzero; opacity: 1;" vector-effect="non-scaling-stroke"  transform=" translate(-2215.25, -2440.18)" d="M 2212 2440 C 2212 2426 2214 2421 2217 2428 C 2219 2434 2219 2446 2217 2453 C 2214 2459 2212 2454 2212 2440 z" stroke-linecap="round" />
</g>
		<g transform="matrix(0.13 0 0 -0.13 96.11 94.97)"  >
<path style="stroke: none; stroke-width: 1; stroke-dasharray: none; stroke-linecap: butt; stroke-dashoffset: 0; stroke-linejoin: miter; stroke-miterlimit: 4; fill: rgb(255,255,255); fill-rule: nonzero; opacity: 1;" vector-effect="non-scaling-stroke"  transform=" translate(-3346.17, -1804.69)" d="M 3414 2257 C 3411 2247 3411 2229 3414 2215 C 3418 2199 3416 2190 3409 2190 C 3402 2190 3400 2181 3404 2165 C 3408 2149 3406 2140 3399 2140 C 3392 2140 3390 2131 3394 2115 C 3398 2100 3396 2090 3389 2090 C 3382 2090 3381 2079 3385 2060 C 3389 2040 3388 2030 3380 2030 C 3372 2030 3370 2021 3374 2005 C 3378 1990 3376 1980 3369 1980 C 3362 1980 3361 1969 3365 1949 C 3371 1925 3369 1919 3360 1925 C 3350 1931 3348 1926 3353 1902 C 3357 1882 3355 1870 3349 1870 C 3342 1870 3340 1860 3344 1845 C 3348 1829 3346 1820 3339 1820 C 3332 1820 3330 1811 3334 1796 C 3337 1782 3335 1768 3330 1765 C 3324 1761 3322 1750 3325 1740 C 3328 1730 3326 1719 3320 1715 C 3314 1711 3312 1700 3315 1690 C 3318 1680 3316 1669 3310 1665 C 3304 1661 3302 1650 3305 1639 C 3309 1629 3307 1620 3303 1620 C 3298 1620 3288 1585 3281 1543 C 3273 1500 3265 1454 3263 1440 C 3254 1388 3250 1337 3255 1342 C 3271 1357 3433 2207 3424 2222 C 3420 2228 3424 2236 3431 2241 C 3442 2247 3442 2252 3433 2261 C 3423 2271 3419 2270 3414 2257 z" stroke-linecap="round" />
</g>
		<g transform="matrix(0.13 0 0 -0.13 162.94 117.07)"  >
<path style="stroke: none; stroke-width: 1; stroke-dasharray: none; stroke-linecap: butt; stroke-dashoffset: 0; stroke-linejoin: miter; stroke-miterlimit: 4; fill: rgb(255,255,255); fill-rule: nonzero; opacity: 1;" vector-effect="non-scaling-stroke"  transform=" translate(-3845.25, -1650.18)" d="M 3842 1650 C 3842 1636 3844 1631 3847 1638 C 3849 1644 3849 1656 3847 1663 C 3844 1669 3842 1664 3842 1650 z" stroke-linecap="round" />
</g>
		<g transform="matrix(0.13 0 0 -0.13 -134.61 135.74)"  >
<path style="stroke: none; stroke-width: 1; stroke-dasharray: none; stroke-linecap: butt; stroke-dashoffset: 0; stroke-linejoin: miter; stroke-miterlimit: 4; fill: rgb(255,255,255); fill-rule: nonzero; opacity: 1;" vector-effect="non-scaling-stroke"  transform=" translate(-1623.25, -1509.3)" d="M 1630 1520 C 1473 1499 1320 1478 1290 1472 L 1235 1461 L 1290 1465 C 1320 1467 1453 1483 1585 1500 C 1804 1528 1900 1535 1986 1527 C 2014 1524 2016 1526 2006 1542 C 1991 1566 1973 1565 1630 1520 z" stroke-linecap="round" />
</g>
		<g transform="matrix(0.13 0 0 -0.13 -76.41 140.09)"  >
<path style="stroke: none; stroke-width: 1; stroke-dasharray: none; stroke-linecap: butt; stroke-dashoffset: 0; stroke-linejoin: miter; stroke-miterlimit: 4; fill: rgb(255,255,255); fill-rule: nonzero; opacity: 1;" vector-effect="non-scaling-stroke"  transform=" translate(-2051.54, -1477.07)" d="M 2000 1500 C 1984 1490 1980 1492 2055 1469 C 2077 1463 2102 1453 2110 1447 C 2118 1442 2107 1453 2085 1473 C 2044 1510 2025 1516 2000 1500 z" stroke-linecap="round" />
</g>
		<g transform="matrix(0.13 0 0 -0.13 86.94 158.87)"  >
<path style="stroke: none; stroke-width: 1; stroke-dasharray: none; stroke-linecap: butt; stroke-dashoffset: 0; stroke-linejoin: miter; stroke-miterlimit: 4; fill: rgb(255,255,255); fill-rule: nonzero; opacity: 1;" vector-effect="non-scaling-stroke"  transform=" translate(-3275.25, -1336.61)" d="M 3272 1335 C 3272 1319 3274 1313 3277 1323 C 3279 1332 3279 1346 3277 1353 C 3274 1359 3272 1352 3272 1335 z" stroke-linecap="round" />
</g>
		<g transform="matrix(0.13 0 0 -0.13 82.61 162.89)"  >
<path style="stroke: none; stroke-width: 1; stroke-dasharray: none; stroke-linecap: butt; stroke-dashoffset: 0; stroke-linejoin: miter; stroke-miterlimit: 4; fill: rgb(255,255,255); fill-rule: nonzero; opacity: 1;" vector-effect="non-scaling-stroke"  transform=" translate(-3242.8, -1306.34)" d="M 3237 1310 C 3234 1299 3236 1287 3241 1284 C 3246 1281 3250 1290 3250 1304 C 3250 1335 3244 1338 3237 1310 z" stroke-linecap="round" />
</g>
		<g transform="matrix(0.13 0 0 -0.13 85.61 166.87)"  >
<path style="stroke: none; stroke-width: 1; stroke-dasharray: none; stroke-linecap: butt; stroke-dashoffset: 0; stroke-linejoin: miter; stroke-miterlimit: 4; fill: rgb(255,255,255); fill-rule: nonzero; opacity: 1;" vector-effect="non-scaling-stroke"  transform=" translate(-3265.25, -1276.61)" d="M 3262 1275 C 3262 1259 3264 1253 3267 1263 C 3269 1272 3269 1286 3267 1293 C 3264 1299 3262 1292 3262 1275 z" stroke-linecap="round" />
</g>
		<g transform="matrix(0.13 0 0 -0.13 84.28 174.4)"  >
<path style="stroke: none; stroke-width: 1; stroke-dasharray: none; stroke-linecap: butt; stroke-dashoffset: 0; stroke-linejoin: miter; stroke-miterlimit: 4; fill: rgb(255,255,255); fill-rule: nonzero; opacity: 1;" vector-effect="non-scaling-stroke"  transform=" translate(-3255.25, -1220.18)" d="M 3252 1220 C 3252 1206 3254 1201 3257 1208 C 3259 1214 3259 1226 3257 1233 C 3254 1239 3252 1234 3252 1220 z" stroke-linecap="round" />
</g>
		<g transform="matrix(0.13 0 0 -0.13 82.88 180.32)"  >
<path style="stroke: none; stroke-width: 1; stroke-dasharray: none; stroke-linecap: butt; stroke-dashoffset: 0; stroke-linejoin: miter; stroke-miterlimit: 4; fill: rgb(255,255,255); fill-rule: nonzero; opacity: 1;" vector-effect="non-scaling-stroke"  transform=" translate(-3244.81, -1175.86)" d="M 3241 1174 C 3241 1163 3244 1160 3247 1168 C 3250 1175 3249 1184 3246 1187 C 3243 1191 3240 1185 3241 1174 z" stroke-linecap="round" />
</g>
		<g transform="matrix(0.13 0 0 -0.13 81.55 186.99)"  >
<path style="stroke: none; stroke-width: 1; stroke-dasharray: none; stroke-linecap: butt; stroke-dashoffset: 0; stroke-linejoin: miter; stroke-miterlimit: 4; fill: rgb(255,255,255); fill-rule: nonzero; opacity: 1;" vector-effect="non-scaling-stroke"  transform=" translate(-3234.81, -1125.86)" d="M 3231 1124 C 3231 1113 3234 1110 3237 1118 C 3240 1125 3239 1134 3236 1137 C 3233 1141 3230 1135 3231 1124 z" stroke-linecap="round" />
</g>
		<g transform="matrix(0.13 0 0 -0.13 80.22 192.32)"  >
<path style="stroke: none; stroke-width: 1; stroke-dasharray: none; stroke-linecap: butt; stroke-dashoffset: 0; stroke-linejoin: miter; stroke-miterlimit: 4; fill: rgb(255,255,255); fill-rule: nonzero; opacity: 1;" vector-effect="non-scaling-stroke"  transform=" translate(-3224.81, -1085.86)" d="M 3221 1084 C 3221 1073 3224 1070 3227 1078 C 3230 1085 3229 1094 3226 1097 C 3223 1101 3220 1095 3221 1084 z" stroke-linecap="round" />
</g>
		<g transform="matrix(0.13 0 0 -0.13 78.88 197.65)"  >
<path style="stroke: none; stroke-width: 1; stroke-dasharray: none; stroke-linecap: butt; stroke-dashoffset: 0; stroke-linejoin: miter; stroke-miterlimit: 4; fill: rgb(255,255,255); fill-rule: nonzero; opacity: 1;" vector-effect="non-scaling-stroke"  transform=" translate(-3214.81, -1045.86)" d="M 3211 1044 C 3211 1033 3214 1030 3217 1038 C 3220 1045 3219 1054 3216 1057 C 3213 1061 3210 1055 3211 1044 z" stroke-linecap="round" />
</g>
		<g transform="matrix(0.13 0 0 -0.13 227.95 210.44)"  >
<path style="stroke: none; stroke-width: 1; stroke-dasharray: none; stroke-linecap: butt; stroke-dashoffset: 0; stroke-linejoin: miter; stroke-miterlimit: 4; fill: rgb(255,255,255); fill-rule: nonzero; opacity: 1;" vector-effect="non-scaling-stroke"  transform=" translate(-4333, -950)" d="M 4320 950 C 4320 945 4324 940 4329 940 C 4335 940 4342 945 4345 950 C 4348 956 4344 960 4336 960 C 4327 960 4320 956 4320 950 z" stroke-linecap="round" />
</g>
</g>
</g>
<g transform="matrix(1.01 0 0 1.01 82.33 40)" style="" id="77125f52-d7d4-412f-8a8f-662929e812f5"  >
		<text xml:space="preserve" font-family="Raleway" font-size="40" font-style="normal" font-weight="900" style="stroke: none; stroke-width: 1; stroke-dasharray: none; stroke-linecap: butt; stroke-dashoffset: 0; stroke-linejoin: miter; stroke-miterlimit: 4; fill: rgb(255,255,255); fill-rule: nonzero; opacity: 1; white-space: pre;" ><tspan x="-59.25" y="9.42" >duo-de</tspan></text>
</g>
<g transform="matrix(1 0 0 1 86.23 58.92)" style="" id="c0ba3a58-0a19-42c2-8b9e-887761f9c097"  >
		<text xml:space="preserve" font-family="Lato" font-size="10.1" font-style="normal" font-weight="400" style="stroke: none; stroke-width: 1; stroke-dasharray: none; stroke-linecap: butt; stroke-dashoffset: 0; stroke-linejoin: miter; stroke-miterlimit: 4; fill: rgb(255,255,255); fill-rule: nonzero; opacity: 1; white-space: pre;" ><tspan x="-63.45" y="3.14" >Surface-duo Dual Experience</tspan></text>
</g>
</svg>